<svg width="28" height="22" viewBox="0 0 28 22" fill="none" xmlns="http://www.w3.org/2000/svg">
<path d="M20.6667 0.333332V0.833332C20.6669 0.833332 20.6672 0.833332 20.6675 0.833332C24.0576 0.833782 26.8333 3.60975 26.8333 7C26.8333 8.50971 26.0726 10.1751 24.8456 11.8622C23.6262 13.5389 21.9899 15.1778 20.3374 16.6237C18.6874 18.0675 17.0352 19.3068 15.7943 20.1857C15.1743 20.6249 14.658 20.9734 14.2973 21.2117C14.1804 21.289 14.0798 21.3546 13.9975 21.408C13.9154 21.3558 13.8154 21.2917 13.6993 21.2163C13.3388 20.9823 12.8227 20.6398 12.2028 20.2072C10.9623 19.3414 9.31065 18.118 7.66125 16.685C6.00943 15.25 4.37387 13.6169 3.15501 11.9333C1.92958 10.2407 1.16667 8.55366 1.16667 7C1.16667 3.60947 3.94281 0.833332 7.33334 0.833332L7.33971 0.83342C7.34648 0.833529 7.3578 0.833766 7.37342 0.834281C7.40468 0.835312 7.45308 0.837451 7.51664 0.841885C7.64385 0.85076 7.83115 0.868786 8.06265 0.905339C8.52669 0.978608 9.16206 1.12534 9.84471 1.4179C11.201 1.99916 12.7467 3.15441 13.5257 5.49145L14 6.91447L14.4743 5.49145C15.2534 3.15441 16.799 1.99916 18.1553 1.4179C18.8379 1.12534 19.4733 0.978608 19.9374 0.905339C20.1689 0.868786 20.3562 0.85076 20.4834 0.841885C20.5469 0.837451 20.5953 0.835312 20.6266 0.834281C20.6422 0.833766 20.6535 0.833529 20.6603 0.83342L20.667 0.833335L20.6671 0.833332C20.6669 0.833332 20.6667 0.833332 20.6667 0.333332ZM20.6667 0.333332C20.6667 0.333332 16.1501 0.333331 14.2714 4.62607M20.6667 0.333332C24.3333 0.333332 27.3333 3.33333 27.3333 7C27.3333 13.6667 14 22 14 22C14 22 0.666672 13.8333 0.666672 7C0.666672 3.33333 3.66667 0.333332 7.33334 0.333332L14.2714 4.62607M14.2714 4.62607C14.3433 4.80259 14.4111 4.98556 14.4743 5.17522L14 5.33333L13.5257 5.17522C13.5889 4.98556 13.6567 4.80259 13.7286 4.62607H14.2714Z" stroke="#22223B" stroke-opacity="0.6"/>
</svg>
